# xmcd
#
# Track frame offsets: 
#        150
#        12326
#        34810
#        49954
#        58295
#        72964
#        93974
#        111611
#        121223
#        135826
#        149587
#
# Disc length: 2184 seconds
#
# Revision: 3
# Processed by: cddbd v1.5.2PL0 Copyright (c) Steve Scherf et al.
# Submitted via: ExactAudioCopy v0.99pb4
#
DISCID=a308860b
DTITLE=Tracy Chapman - Tracy Chapman
DYEAR=1988
DGENRE=Blues
TTITLE0=Talkin' Bout A Revolution 
TTITLE1=Fast Car
TTITLE2=Across The Lines
TTITLE3=Behind The Wall
TTITLE4=Baby Can I Hold You
TTITLE5=Mountains O' Things
TTITLE6=She's Got Her Ticket
TTITLE7=Why?
TTITLE8=For My Lover
TTITLE9=If Not Now...
TTITLE10=For You
EXTD=
EXTT0=
EXTT1=
EXTT2=
EXTT3=
EXTT4=
EXTT5=
EXTT6=
EXTT7=
EXTT8=
EXTT9=
EXTT10=
PLAYORDER=
